HIERARCHY
ROOT Hips
{
	OFFSET 52.394402 -34.605515 84.585793
	CHANNELS 6 Xposition Yposition Zposition Xrotation Yrotation Zrotation
	JOINT spine
	{
		OFFSET 0.000000 -0.342407 5.954376
		CHANNELS 3 Xrotation Yrotation Zrotation
		JOINT spine1
		{
			OFFSET 0.000000 0.000000 8.856018
			CHANNELS 3 Xrotation Yrotation Zrotation
			JOINT spine2
			{
				OFFSET 0.000000 -0.000004 8.485672
				CHANNELS 3 Xrotation Yrotation Zrotation
				JOINT Neck
				{
					OFFSET 0.000000 -1.038704 21.786308
					CHANNELS 3 Xrotation Yrotation Zrotation
					JOINT Head
					{
						OFFSET 0.000000 0.000000 6.582199
						CHANNELS 3 Xrotation Yrotation Zrotation
						End Site
						{
							OFFSET 0.000000 5.254358 15.932602
						}
					}
				}
				JOINT RightShoulder
				{
					OFFSET -3.573071 0.497524 9.163864
					CHANNELS 3 Xrotation Yrotation Zrotation
					JOINT RightArm
					{
						OFFSET 0.000000 -0.000004 12.019203
						CHANNELS 3 Xrotation Yrotation Zrotation
						JOINT RightArmRoll
						{
							OFFSET 0.000000 0.000000 6.067551
							CHANNELS 3 Xrotation Yrotation Zrotation
							JOINT RightForeArm
							{
								OFFSET 0.000000 -0.000004 17.672607
								CHANNELS 3 Xrotation Yrotation Zrotation
								JOINT RightForeArmRoll
								{
									OFFSET 0.000000 0.000000 6.808716
									CHANNELS 3 Xrotation Yrotation Zrotation
									JOINT RightHand
									{
										OFFSET 0.000000 0.000000 13.663605
										CHANNELS 3 Xrotation Yrotation Zrotation
										End Site
										{
											OFFSET 0.000000 0.000000 0.100006
										}
									}
								}
							}
						}
					}
				}
				JOINT LeftShoulder
				{
					OFFSET 3.573071 0.497524 9.163864
					CHANNELS 3 Xrotation Yrotation Zrotation
					JOINT LeftArm
					{
						OFFSET 0.000000 -0.000004 12.019203
						CHANNELS 3 Xrotation Yrotation Zrotation
						JOINT LeftArmRoll
						{
							OFFSET 0.000000 0.000000 6.067551
							CHANNELS 3 Xrotation Yrotation Zrotation
							JOINT LeftForeArm
							{
								OFFSET 0.000000 -0.000004 17.672607
								CHANNELS 3 Xrotation Yrotation Zrotation
								JOINT LeftForeArmRoll
								{
									OFFSET 0.000000 0.000000 6.808716
									CHANNELS 3 Xrotation Yrotation Zrotation
									JOINT LeftHand
									{
										OFFSET 0.000000 0.000000 13.663605
										CHANNELS 3 Xrotation Yrotation Zrotation
										End Site
										{
											OFFSET 0.000000 0.000000 0.100006
										}
									}
								}
							}
						}
					}
				}
			}
		}
	}
	JOINT RightUpLeg
	{
		OFFSET -5.277740 0.811859 -0.967796
		CHANNELS 3 Xrotation Yrotation Zrotation
		JOINT RightUpLegRoll
		{
			OFFSET 0.000000 0.000000 16.021400
			CHANNELS 3 Xrotation Yrotation Zrotation
			JOINT RightLeg
			{
				OFFSET 0.000000 0.000004 -19.840103
				CHANNELS 3 Xrotation Yrotation Zrotation
				JOINT RightLegRoll
				{
					OFFSET 0.000000 -0.000004 19.904999
					CHANNELS 3 Xrotation Yrotation Zrotation
					JOINT RightFoot
					{
						OFFSET 0.000000 -0.000004 16.567497
						CHANNELS 3 Xrotation Yrotation Zrotation
						JOINT RightToeBase
						{
							OFFSET 0.000000 -0.000004 13.849609
							CHANNELS 3 Xrotation Yrotation Zrotation
							End Site
							{
								OFFSET 0.005871 0.773117 6.707275
							}
						}
					}
				}
			}
		}
	}
	JOINT LeftUpLeg
	{
		OFFSET 5.277740 0.811859 -0.967796
		CHANNELS 3 Xrotation Yrotation Zrotation
		JOINT LeftUpLegRoll
		{
			OFFSET 0.000000 0.000000 16.021500
			CHANNELS 3 Xrotation Yrotation Zrotation
			JOINT LeftLeg
			{
				OFFSET 0.000000 -0.000004 19.840004
				CHANNELS 3 Xrotation Yrotation Zrotation
				JOINT LeftLegRoll
				{
					OFFSET 0.000000 -0.000004 20.089012
					CHANNELS 3 Xrotation Yrotation Zrotation
					JOINT LeftFoot
					{
						OFFSET 0.000000 -0.000004 16.383499
						CHANNELS 3 Xrotation Yrotation Zrotation
						JOINT LeftToeBase
						{
							OFFSET 0.000000 0.000000 13.849594
							CHANNELS 3 Xrotation Yrotation Zrotation
							End Site
							{
								OFFSET -0.026310 0.773113 6.707275
							}
						}
					}
				}
			}
		}
	}
}
MOTION
Frames: 6
Frame Time: 0.041667
50.012505 8.277042 54.768181 -18.648614 1.237975 3.376584 -0.703039 0.603167 -0.405623 2.614688 1.207113 -0.804090 4.259877 1.197294 -0.818883 13.441943 -8.611754 -0.543234 8.973275 4.787689 -0.326927 8.057617 -95.120991 4.026273 79.835308 -61.522813 87.659003 -0.000002 -0.000000 -0.000001 -0.027461 3.647040 -1.990823 -0.000000 0.000002 -3.011610 -5.000163 -7.999921 0.000014 -22.007985 67.366067 25.822966 -58.914808 120.213310 64.406300 0.000001 0.000026 0.000002 -0.029777 -3.653849 1.990652 0.000003 0.000001 3.011611 -5.000172 7.999928 -0.000018 -74.152400 -179.474149 -2.659447 -179.999991 0.000005 -2.116999 82.934937 7.722177 2.598532 0.000003 -0.000006 2.856509 65.872783 7.343427 1.241473 25.456957 -7.355617 0.000011 -74.825282 178.693882 5.365607 -0.000004 -0.000004 -2.272250 -97.006513 -7.552251 -4.054015 0.000001 -0.000002 -2.698190 60.113000 -7.879892 -0.557770 25.456957 7.355605 -0.000002 
49.999702 8.280239 54.769386 -18.646451 1.243401 3.373443 -0.701272 0.602833 -0.405239 2.617258 1.206431 -0.803560 4.262440 1.196622 -0.818310 13.473549 -8.593067 -0.544048 8.982024 4.754510 -0.327333 8.081999 -95.118881 4.050350 79.863681 -61.516584 87.676707 0.000001 -0.000000 -0.000001 -0.027463 3.647041 -1.990823 -0.000000 0.000002 -3.011609 -5.000162 -7.999920 0.000015 -22.023701 67.364025 25.840803 -58.879810 120.235358 64.393432 0.000000 0.000026 0.000002 -0.029777 -3.653851 1.990651 0.000006 0.000001 3.011610 -5.000174 7.999929 -0.000018 -74.158950 -179.488014 -2.654054 -179.999991 0.000005 -2.116002 82.936986 7.722550 2.596613 0.000003 -0.000006 2.856510 65.877304 7.343471 1.241580 25.456957 -7.355615 0.000011 -74.832037 178.689975 5.361197 -0.000005 -0.000004 -2.272170 -97.003993 -7.550892 -4.050773 0.000001 -0.000001 -2.697910 60.111750 -7.879874 -0.558056 25.456955 7.355608 -0.000004 
49.993404 8.296745 54.757885 -18.644794 1.249193 3.370476 -0.699398 0.602412 -0.404879 2.619969 1.205569 -0.803077 4.265159 1.195770 -0.817777 13.504632 -8.573916 -0.544955 8.990972 4.720755 -0.327731 8.104699 -95.116634 4.072800 79.891022 -61.510457 87.693625 0.000000 0.000000 0.000000 -0.027457 3.647040 -1.990824 0.000001 0.000002 -3.011609 -5.000164 -7.999920 0.000014 -22.039969 67.362529 25.859248 -58.843978 120.258362 64.379560 0.000000 0.000026 0.000003 -0.029778 -3.653850 1.990651 0.000006 0.000001 3.011610 -5.000171 7.999929 -0.000017 -74.164844 -179.501579 -2.650015 -179.999991 0.000005 -2.116001 82.938796 7.722985 2.594718 0.000003 -0.000005 2.856510 65.881922 7.343488 1.241672 25.456955 -7.355615 0.000012 -74.838465 178.685235 5.358710 -0.000005 -0.000005 -2.272120 -97.001752 -7.549819 -4.047554 0.000000 -0.000001 -2.697660 60.110412 -7.879925 -0.558168 25.456952 7.355607 -0.000004 
49.987103 8.298092 54.751282 -18.643538 1.255220 3.367639 -0.697461 0.601932 -0.404534 2.622801 1.204577 -0.802627 4.267978 1.194798 -0.817269 13.535199 -8.554445 -0.545950 9.000079 4.686624 -0.328122 8.125794 -95.114585 4.093671 79.917967 -61.504385 87.710311 -0.000000 -0.000000 0.000001 -0.027461 3.647041 -1.990823 -0.000001 0.000002 -3.011610 -5.000168 -7.999919 0.000014 -22.056720 67.361491 25.878210 -58.810244 120.281257 64.368037 -0.000001 0.000026 0.000003 -0.029778 -3.653851 1.990652 0.000005 -0.000000 3.011611 -5.000176 7.999928 -0.000017 -74.170226 -179.515403 -2.645287 -179.999991 0.000005 -2.116002 82.940483 7.723443 2.592932 0.000003 -0.000006 2.856510 65.886552 7.343506 1.241766 25.456955 -7.355617 0.000012 -74.844789 178.680508 5.355515 -0.000005 -0.000004 -2.272100 -96.999847 -7.548577 -4.045344 0.000001 -0.000002 -2.697430 60.109066 -7.879926 -0.558270 25.456953 7.355605 -0.000003 
50.058605 8.292435 54.786179 -18.642378 1.261397 3.364864 -0.695489 0.601418 -0.404198 2.625679 1.203526 -0.802198 4.270858 1.193757 -0.816779 13.565550 -8.534777 -0.546986 9.009278 4.652257 -0.328503 8.146327 -95.112413 4.113992 79.944707 -61.498292 87.726909 0.000000 0.000000 0.000000 -0.027455 3.647041 -1.990822 -0.000001 0.000002 -3.011610 -5.000166 -7.999921 0.000015 -22.073732 67.360739 25.897482 -58.776797 120.304329 64.356836 -0.000002 0.000026 0.000003 -0.029773 -3.653851 1.990651 0.000004 0.000000 3.011610 -5.000179 7.999929 -0.000017 -74.175417 -179.529473 -2.639784 -179.999991 0.000005 -2.116002 82.942074 7.723932 2.591054 0.000003 -0.000005 2.856510 65.891067 7.343551 1.241973 25.456955 -7.355616 0.000012 -74.851019 178.675768 5.351914 -0.000005 -0.000004 -2.272080 -96.998009 -7.547411 -4.043158 0.000001 -0.000001 -2.697211 60.107618 -7.879953 -0.558383 25.456952 7.355608 -0.000001 
50.044704 8.298275 54.781685 -18.641425 1.267611 3.362115 -0.693511 0.600895 -0.403865 2.628592 1.202454 -0.801773 4.273757 1.192696 -0.816292 13.595795 -8.515076 -0.548067 9.018496 4.617833 -0.328873 8.166513 -95.110350 4.133976 79.971434 -61.492193 87.743520 -0.000000 -0.000000 -0.000000 -0.027464 3.647041 -1.990823 0.000003 0.000002 -3.011609 -5.000165 -7.999920 0.000014 -22.090770 67.359974 25.916784 -58.743404 120.327429 64.345682 0.000002 0.000026 0.000003 -0.029780 -3.653851 1.990651 0.000005 0.000000 3.011610 -5.000175 7.999929 -0.000018 -74.180513 -179.543270 -2.635307 -179.999991 0.000005 -2.116001 82.943645 7.724429 2.589179 0.000003 -0.000006 2.856510 65.895691 7.343611 1.241976 25.456953 -7.355613 0.000011 -74.857159 178.670768 5.349161 -0.000005 -0.000004 -2.272070 -96.996234 -7.546315 -4.040975 0.000001 -0.000002 -2.696980 60.106170 -7.879982 -0.558496 25.456950 7.355607 -0.000004 
